<?xml version="1.0" standalone="no"?>
<!DOCTYPE svg PUBLIC "-//W3C//DTD SVG 20010904//EN"
        "http://www.w3.org/TR/2001/REC-SVG-20010904/DTD/svg10.dtd">
<svg version="1.0" xmlns="http://www.w3.org/2000/svg"
     width="640.000000pt" height="640.000000pt" viewBox="0 0 640.000000 640.000000"
     preserveAspectRatio="xMidYMid meet">
    <metadata>
        Created by potrace 1.11, written by Peter Selinger 2001-2013
    </metadata>
    <g transform="translate(0.000000,640.000000) scale(0.100000,-0.100000)"
       fill="#000000" stroke="none">
        <path d="M370 5536 c0 -679 3 -866 13 -873 6 -5 30 -15 52 -22 22 -8 51 -18
65 -24 14 -6 27 -11 30 -12 3 -1 22 -9 44 -18 21 -9 42 -17 47 -17 5 0 31 -9
57 -21 58 -26 62 -28 197 -79 61 -24 124 -48 140 -55 17 -7 77 -31 135 -53
121 -46 478 -186 530 -207 53 -22 94 -38 100 -39 9 -2 224 -88 265 -106 22 -9
51 -21 65 -25 14 -4 41 -14 60 -22 49 -21 59 -25 210 -83 74 -29 153 -60 175
-70 22 -9 51 -21 65 -25 14 -4 39 -13 55 -20 17 -8 91 -37 165 -65 74 -29 153
-60 175 -70 22 -9 51 -21 65 -25 14 -4 39 -13 55 -20 27 -12 62 -26 75 -30 6
-2 48 -19 105 -41 22 -9 56 -22 75 -30 19 -7 49 -19 65 -25 17 -7 32 -13 35
-14 8 -3 98 -38 165 -65 11 -5 103 -41 205 -80 245 -96 260 -102 260 -114 0
-5 -3 -6 -7 -3 -3 4 -17 0 -30 -8 -13 -9 -23 -13 -23 -11 0 3 -32 -8 -71 -25
-40 -16 -78 -29 -85 -29 -8 0 -14 -4 -14 -10 0 -5 -6 -10 -13 -10 -8 0 -65
-21 -128 -46 -63 -25 -118 -47 -124 -48 -17 -5 -175 -66 -250 -96 -37 -16
-270 -105 -275 -106 -3 0 -16 -5 -30 -11 -14 -6 -56 -23 -95 -38 -38 -15 -79
-31 -90 -36 -11 -4 -63 -24 -115 -44 -52 -20 -104 -40 -115 -45 -38 -17 -410
-161 -426 -165 -9 -2 -25 -8 -35 -13 -11 -6 -64 -27 -119 -48 -55 -20 -113
-42 -130 -49 -68 -29 -321 -127 -335 -130 -13 -3 -51 -18 -115 -47 -12 -5 -27
-10 -35 -12 -8 -2 -28 -9 -45 -16 -16 -7 -32 -14 -35 -15 -12 -4 -67 -26 -85
-34 -42 -19 -161 -61 -173 -61 -6 0 -12 -4 -12 -10 0 -5 -6 -10 -14 -10 -14 0
-295 -106 -361 -136 -16 -7 -58 -23 -93 -35 -34 -12 -65 -26 -68 -30 -3 -5
-15 -9 -28 -9 -12 0 -26 -4 -32 -9 -5 -4 -34 -17 -64 -27 -30 -10 -61 -22 -68
-27 -9 -7 -12 -194 -12 -873 l0 -865 30 16 c16 8 32 15 35 14 3 0 25 8 48 19
23 11 143 64 267 117 233 101 279 121 368 161 29 13 55 24 58 24 3 0 39 16 80
35 41 19 80 35 87 35 7 0 17 4 23 9 13 12 175 81 191 81 7 0 13 5 13 10 0 6 5
10 11 10 6 0 25 6 42 14 18 7 48 21 67 29 19 8 82 36 139 61 57 25 110 46 117
46 8 0 14 5 14 10 0 6 6 10 14 10 7 0 40 12 72 27 33 15 61 28 64 29 3 0 23 9
45 19 22 10 42 19 45 20 3 0 70 29 150 64 80 35 165 72 190 83 25 11 59 25 75
33 17 7 131 57 255 110 224 97 259 112 335 145 22 10 57 25 78 34 63 27 100
43 159 70 31 14 59 26 62 26 2 0 39 16 80 35 42 19 78 35 81 35 2 0 29 11 60
25 145 67 521 228 533 228 6 0 12 3 12 6 0 3 15 12 33 20 17 7 46 19 62 26 39
18 89 38 95 39 3 1 31 14 64 29 32 15 60 27 62 27 2 0 27 11 56 24 29 13 116
51 193 84 77 33 183 79 235 102 101 44 133 58 220 95 30 13 73 31 95 41 22 10
42 19 45 19 3 1 36 16 74 33 38 18 71 32 74 32 3 0 32 13 66 28 34 16 134 60
223 98 l163 69 0 745 0 745 -48 19 c-26 11 -72 30 -102 44 -30 13 -71 31 -90
39 -68 30 -106 46 -145 64 -22 10 -114 50 -205 89 -91 39 -174 75 -185 80 -71
33 -162 72 -170 74 -5 1 -32 13 -60 25 -27 13 -65 29 -82 37 -73 31 -106 45
-288 124 -104 45 -208 90 -230 100 -22 10 -107 47 -190 83 -183 79 -205 89
-278 121 -32 14 -60 26 -62 26 -2 0 -28 11 -57 24 -29 13 -107 47 -173 76 -66
29 -138 60 -160 70 -22 10 -89 39 -150 64 -121 52 -163 70 -215 95 -19 9 -37
16 -40 17 -3 0 -21 7 -40 16 -19 9 -73 32 -119 52 -98 43 -127 55 -196 86 -52
23 -65 28 -175 75 -36 15 -93 40 -128 56 -35 16 -65 29 -67 29 -3 0 -28 11
-57 24 -85 38 -136 61 -253 110 -60 26 -123 53 -140 61 -16 7 -52 23 -80 35
-57 25 -107 47 -150 65 -103 44 -275 118 -300 130 -44 21 -129 58 -140 61 -9
2 -187 79 -240 104 -29 14 -121 54 -280 122 -77 33 -158 68 -180 78 -22 10
-57 25 -77 34 -21 9 -54 23 -73 31 l-35 15 0 -864z"/>
    </g>
</svg>
