<svg xmlns="http://www.w3.org/2000/svg" width="286.202" height="80" viewBox="0 0 286.202 80">
  <g id="Group_68" data-name="Group 68" transform="translate(-5138.193 -6756.06)">
    <g id="Group_66" data-name="Group 66">
      <path id="Path_48" data-name="Path 48" d="M5138.193,6796.106c0-22.5,16.685-39.955,39.955-39.955,14.05,0,26.454,7.134,33.04,18.112l-13.063,7.572c-3.732-6.8-11.195-10.976-19.977-10.976-15.038,0-24.916,10.429-24.916,25.247,0,14.708,9.878,25.136,24.916,25.136,8.782,0,16.355-4.171,19.977-10.867l13.063,7.574c-6.476,10.977-18.88,18.111-33.04,18.111C5154.878,6836.06,5138.193,6818.5,5138.193,6796.106Z"/>
      <path id="Path_49" data-name="Path 49" d="M5276.053,6779.641v56.418h-14.159v-8.011c-3.952,4.94-9.879,8.012-17.892,8.012-14.6,0-26.674-12.622-26.674-28.978S5229.4,6778.1,5244,6778.1c8.013,0,13.94,3.072,17.892,8.012v-6.476Zm-14.159,27.441c0-9.22-6.477-15.476-15.257-15.476-8.672,0-15.148,6.256-15.148,15.476s6.476,15.477,15.148,15.477C5255.417,6822.559,5261.894,6816.3,5261.894,6807.082Z"/>
      <path id="Path_50" data-name="Path 50" d="M5306.781,6779.092v.549h11.635v13.611h-11.635v42.807h-14.159v-42.807h-7.9v-13.611h7.9v-.549c0-15.147,8.341-24.039,25.794-22.941v13.611C5311.062,6769.213,5306.781,6771.628,5306.781,6779.092Z"/>
      <path id="Path_51" data-name="Path 51" d="M5350.245,6823.217c5.488,0,9.879-2.3,12.293-5.487l11.416,6.586c-5.159,7.464-13.391,11.744-23.929,11.744-18.441,0-30.076-12.622-30.076-28.978s11.746-28.977,28.978-28.977c16.246,0,27.772,12.841,27.772,28.977a32.62,32.62,0,0,1-.55,5.817h-41.381C5336.743,6820.145,5342.781,6823.217,5350.245,6823.217Zm12.293-21.294c-1.756-7.9-7.683-11.086-13.611-11.086-7.573,0-12.732,4.061-14.379,11.086Z"/>
    </g>
    <g id="Group_67" data-name="Group 67">
      <path id="Path_52" data-name="Path 52" d="M5424.4,6771.413v9.294L5389,6796.06v-10.828l23.516-9.131L5389,6766.888V6756.06Z" fill="#1616d2"/>
    </g>
  </g>
</svg>
