<svg xmlns="http://www.w3.org/2000/svg" viewBox="0 0 30 30">
    <g transform="matrix(3.77953 0 0 3.77953 -875.46 -297.394)">
        <path fill="#bde5f8"
              d="m 237.98225,85.167953 h -4.7625 a 0.26458333,0.26458333 0 0 1 0,-0.529166 h 4.7625 a 0.26458333,0.26458333 0 0 1 0,0.529166 z"/>
        <path fill="#148aff"
              d="m 235.59376,80.140875 c -0.14329,0.0039 -0.2574,0.121237 -0.25734,0.264583 v 2.38125 h 0.52916 v -2.38125 c 6e-5,-0.148997 -0.12287,-0.268658 -0.27182,-0.264583 z"/>
        <path fill="#148aff"
              d="m 236.90275,82.421578 c -0.0406,-0.0988 -0.1366,-0.163508 -0.24342,-0.164041 -0.70555,0 -1.41111,0 -2.11666,0 -0.10682,5.29e-4 -0.20283,0.06524 -0.24342,0.164041 -0.0414,0.09853 -0.0195,0.212312 0.0556,0.288396 l 1.05834,1.058333 c 0.016,0.01387 0.0338,0.02545 0.0529,0.0344 0.0105,0.0086 0.022,0.01569 0.0344,0.02117 0.064,0.0283 0.13704,0.0283 0.20108,0 0.0124,-0.0055 0.0239,-0.0126 0.0344,-0.02117 0.0191,-0.009 0.037,-0.02053 0.0529,-0.0344 l 1.05834,-1.058333 c 0.0751,-0.07608 0.097,-0.189866 0.0556,-0.288396 z"/>
    </g>
</svg>