<svg xmlns="http://www.w3.org/2000/svg" width="372.901" height="104.234" viewBox="0 0 372.901 104.234">
  <g id="Group_150" data-name="Group 150" transform="translate(-6387.292 -4463.467)">
    <g id="Group_148" data-name="Group 148">
      <path id="Path_166" data-name="Path 166" d="M6387.292,4515.644c0-29.32,21.739-52.058,52.059-52.058,18.306,0,34.467,9.295,43.048,23.6l-17.019,9.867c-4.863-8.866-14.587-14.3-26.029-14.3-19.593,0-32.465,13.588-32.465,32.9,0,19.163,12.872,32.75,32.465,32.75,11.442,0,21.309-5.435,26.029-14.159l17.019,9.869c-8.438,14.3-24.6,23.6-43.048,23.6C6409.031,4567.7,6387.292,4544.819,6387.292,4515.644Z" fill="#fff"/>
      <path id="Path_167" data-name="Path 167" d="M6566.914,4494.191V4567.7h-18.449v-10.438c-5.148,6.436-12.871,10.439-23.312,10.439-19.021,0-34.753-16.446-34.753-37.757s15.732-37.754,34.753-37.754c10.441,0,18.164,4,23.312,10.439v-8.438Zm-18.449,35.753c0-12.012-8.438-20.164-19.879-20.164-11.3,0-19.736,8.152-19.736,20.164s8.438,20.167,19.736,20.167C6540.027,4550.111,6548.465,4541.959,6548.465,4529.944Z" fill="#fff"/>
      <path id="Path_168" data-name="Path 168" d="M6606.95,4493.476v.715h15.16v17.734h-15.16V4567.7H6588.5v-55.775h-10.3v-17.734h10.3v-.715c0-19.736,10.869-31.322,33.609-29.89v17.734C6612.527,4480.6,6606.95,4483.75,6606.95,4493.476Z" fill="#fff"/>
      <path id="Path_169" data-name="Path 169" d="M6663.58,4550.968c7.151,0,12.872-3,16.018-7.149l14.874,8.581c-6.722,9.725-17.448,15.3-31.178,15.3-24.027,0-39.187-16.446-39.187-37.757s15.3-37.754,37.757-37.754c21.167,0,36.184,16.731,36.184,37.754a42.512,42.512,0,0,1-.716,7.581h-53.917C6645.989,4546.965,6653.855,4550.968,6663.58,4550.968Zm16.018-27.744c-2.288-10.3-10.011-14.445-17.734-14.445-9.868,0-16.59,5.292-18.735,14.445Z" fill="#fff"/>
    </g>
    <g id="Group_149" data-name="Group 149">
      <path id="Path_170" data-name="Path 170" d="M6760.193,4483.471v12.109l-46.116,20v-14.108l30.639-11.9-30.639-12v-14.108Z" fill="#fff"/>
    </g>
  </g>
</svg>
